<?xml version="1.0" encoding="utf-8"?>
<!-- Generator: $$$/GeneralStr/196=Adobe Illustrator 27.6.0, SVG Export Plug-In . SVG Version: 6.00 Build 0)  -->
<svg version="1.1" id="Layer_1" xmlns="http://www.w3.org/2000/svg" xmlns:xlink="http://www.w3.org/1999/xlink" x="0px" y="0px"
	 viewBox="0 0 1045 315" style="enable-background:new 0 0 1045 315;" xml:space="preserve">
<style type="text/css">
	.st0{fill:#89CE94;}
</style>
<g>
	<path class="st0" d="M294.8,314.9H20.1c-11,0-20-9-20-20V20.2c0-11,9-20,20-20h274.7c11,0,20,9,20,20v274.7
		C314.8,305.9,305.8,314.9,294.8,314.9z"/>
	<g>
		<path d="M487,78.6c-5.9-5.4-12.9-9.6-21-12.6c-8-3-16.6-4.5-25.8-4.5h-68.2v193.7h36.5v-71.1h31.6c9.2,0,17.8-1.5,25.8-4.5
			c8-3,15-7.2,21-12.6c5.9-5.4,10.6-11.9,14.1-19.3c3.4-7.5,5.1-15.8,5.1-25c0-9-1.7-17.3-5.1-24.7C497.7,90.5,493,84,487,78.6z
			 M462.4,141.4c-4.9,5.4-12.1,8.1-21.6,8.1h-32.2V96.2h32.2c4.9,0,9.1,0.7,12.7,2.2c3.6,1.4,6.6,3.4,9.1,5.8
			c2.4,2.4,4.2,5.3,5.4,8.5c1.2,3.2,1.8,6.6,1.8,10C469.7,129.7,467.3,136,462.4,141.4z"/>
		<path d="M626,176.8c5.6-2,10.9-4.7,16-8.2c5-3.5,9.5-7.6,13.3-12.2c3.8-4.6,6.8-9.7,8.9-15.4c2.2-5.7,3.2-11.8,3.2-18.3
			c0-8.8-1.5-17-4.6-24.5c-3.1-7.5-7.4-13.9-13.1-19.3c-5.7-5.4-12.5-9.6-20.4-12.7c-7.9-3.1-16.8-4.6-26.5-4.6h-70.6v193.7h36.5
			v-72.8h17l50,72.8h41.9v-2.2l-51.9-74.4L626,176.8z M602.5,148.9h-33.8V95.1h34.3c4.5,0,8.5,0.8,12,2.3c3.5,1.5,6.4,3.6,8.8,6.1
			c2.3,2.5,4.1,5.4,5.3,8.7c1.2,3.2,1.8,6.6,1.8,10c0,7.8-2.7,14.2-8,19.2C617.6,146.4,610.8,148.9,602.5,148.9z"/>
		<path d="M863.8,86.6c-9-9.1-19.7-16.3-32.1-21.5c-12.4-5.2-25.7-7.8-40.2-7.8c-14.4,0-27.8,2.6-40.2,7.8
			c-12.4,5.2-23,12.4-32.1,21.5c-9,9.1-16.1,19.8-21.2,32.2c-5.1,12.4-7.7,25.6-7.7,39.6c0,14.1,2.6,27.3,7.7,39.6
			c5.1,12.4,12.2,23.1,21.2,32.2c9,9.1,19.7,16.3,32.1,21.5c12.3,5.2,25.7,7.8,40.2,7.8c14.4,0,27.8-2.6,40.2-7.8
			c12.3-5.2,23-12.4,32.1-21.5c9-9.1,16.1-19.8,21.2-32.2c5.1-12.3,7.7-25.6,7.7-39.6c0-14.1-2.6-27.3-7.7-39.6
			C879.9,106.4,872.8,95.7,863.8,86.6z M851.2,185.6c-3.3,8.2-7.9,15.2-13.8,21c-5.9,5.8-12.7,10.3-20.6,13.5s-16.3,4.9-25.3,4.9
			c-9,0-17.4-1.6-25.3-4.9s-14.7-7.8-20.6-13.5c-5.9-5.8-10.5-12.8-13.8-21c-3.3-8.2-5-17.3-5-27.2c0-9.9,1.7-19,5-27.2
			c3.3-8.2,7.9-15.2,13.8-21c5.9-5.8,12.7-10.3,20.6-13.5c7.8-3.2,16.3-4.9,25.3-4.9c9,0,17.4,1.6,25.3,4.9
			c7.8,3.2,14.7,7.8,20.6,13.5c5.9,5.8,10.5,12.8,13.8,21c3.3,8.2,5,17.3,5,27.2C856.2,168.3,854.5,177.4,851.2,185.6z"/>
		<polygon points="1045,96.2 1045,61.6 922.2,61.6 922.2,255.2 958.7,255.2 958.7,177.9 1036.3,177.9 1036.3,143.3 958.7,143.3 
			958.7,96.2 		"/>
	</g>
	<path d="M228.6,200.6c0,8.3-1.7,15.8-5,22.4c-3.4,6.6-7.9,12.2-13.7,17c-5.8,4.7-12.5,8.3-20.2,10.8c-7.7,2.5-16,3.8-24.8,3.8H86.3
		V60.4h75.9c8.3,0,16.1,1.3,23.3,3.9c7.2,2.6,13.5,6.2,18.9,10.8c5.3,4.6,9.5,10,12.6,16.1c3.1,6.1,4.6,12.7,4.6,19.8
		c0,10.3-2.5,19-7.5,25.9c-5,7-11.2,12.2-18.6,15.9v2.2c9.9,3.6,17.9,9.3,24,17C225.6,179.7,228.6,189.3,228.6,200.6z"/>
</g>
</svg>
